<?xml version="1.0" standalone="no"?>
<!DOCTYPE svg PUBLIC "-//W3C//DTD SVG 20010904//EN"
 "http://www.w3.org/TR/2001/REC-SVG-20010904/DTD/svg10.dtd">
<svg version="1.0" xmlns="http://www.w3.org/2000/svg"
 width="280.000000pt" height="280.000000pt" viewBox="0 0 280.000000 280.000000"
 preserveAspectRatio="xMidYMid meet">
<metadata>
Created by potrace 1.11, written by Peter Selinger 2001-2013
</metadata>
<g transform="translate(0.000000,280.000000) scale(0.100000,-0.100000)"
fill="#000000" stroke="none">
<path d="M1169 2674 c-430 -77 -802 -378 -967 -782 -318 -781 175 -1651 1008
-1777 117 -18 219 -19 274 -3 101 31 173 167 147 280 -14 61 -47 109 -101 144
-30 20 -58 27 -141 35 -145 14 -249 41 -354 93 -221 110 -378 308 -436 551
-18 75 -20 111 -17 215 4 106 10 139 37 220 91 273 293 463 579 547 50 15 135
18 692 23 626 5 636 5 675 27 105 56 153 166 121 275 -19 66 -63 120 -119 147
-43 21 -54 21 -683 20 -495 -1 -656 -4 -715 -15z"/>
<path d="M1284 1601 c-135 -78 -160 -268 -47 -372 58 -55 86 -62 263 -70 181
-7 266 -28 380 -91 81 -46 218 -188 262 -273 58 -112 69 -163 78 -345 8 -192
20 -231 86 -288 117 -104 291 -70 367 72 22 41 22 44 25 610 3 627 2 635 -58
708 -16 20 -49 46 -73 57 -42 21 -55 21 -638 21 l-594 0 -51 -29z"/>
</g>
</svg>
